<?xml version="1.0" encoding="UTF-8"?>
<svg xmlns="http://www.w3.org/2000/svg" xmlns:xlink="http://www.w3.org/1999/xlink" width="2412pt" height="900pt" viewBox="0 0 2412 900" version="1.1">
<g id="surface1">
<path style=" stroke:none;fill-rule:nonzero;fill:rgb(0%,0%,0%);fill-opacity:1;" d="M 294.867188 175.234375 C 288.835938 178.550781 287.632812 190.011719 292.757812 195.140625 C 295.167969 197.554688 295.167969 200.269531 292.757812 204.492188 C 290.949219 207.808594 289.441406 215.046875 289.441406 220.175781 C 289.441406 225.300781 287.632812 229.824219 285.820312 230.429688 C 283.710938 231.03125 273.160156 233.144531 262.605469 235.253906 C 239.992188 239.175781 210.75 251.84375 191.753906 265.414062 L 178.789062 274.765625 L 167.332031 267.226562 C 161 263.003906 154.972656 259.382812 153.464844 259.382812 C 152.257812 259.382812 149.242188 255.765625 147.132812 251.238281 C 145.023438 246.714844 140.800781 242.492188 137.785156 241.890625 C 123.917969 239.175781 118.1875 259.382812 130.851562 266.019531 C 135.070312 268.128906 142.609375 275.972656 147.734375 283.210938 L 157.382812 296.179688 L 148.035156 309.449219 C 132.960938 329.960938 120.296875 360.121094 116.378906 383.949219 L 112.761719 405.664062 L 100.699219 407.472656 C 94.371094 408.378906 85.925781 410.1875 82.308594 411.394531 C 78.691406 412.601562 75.074219 411.996094 73.867188 410.1875 C 69.949219 403.855469 57.285156 406.871094 53.667969 415.011719 C 50.351562 421.949219 50.652344 423.761719 56.683594 428.585938 C 62.109375 432.808594 65.425781 433.410156 71.152344 431.300781 C 75.976562 429.492188 84.117188 429.792969 95.878906 432.207031 C 111.554688 435.824219 113.0625 437.03125 113.96875 445.175781 C 116.378906 469.605469 130.246094 503.988281 148.339844 530.226562 L 157.082031 543.195312 L 149.542969 551.945312 C 145.625 557.070312 141.402344 563.707031 140.199219 567.023438 C 139.292969 570.34375 135.675781 573.054688 132.660156 573.054688 C 124.519531 573.054688 119.394531 583.3125 123.613281 591.453125 C 128.136719 599.597656 141.703125 598.089844 146.527344 588.738281 C 148.339844 585.121094 156.175781 577.882812 164.015625 573.054688 L 178.1875 564.007812 L 190.847656 572.753906 C 217.078125 590.550781 246.324219 602.3125 278.285156 607.742188 C 288.234375 609.25 289.441406 610.457031 289.441406 618.296875 C 289.441406 623.125 290.644531 630.363281 292.453125 634.585938 C 294.265625 639.410156 294.265625 642.726562 292.453125 643.933594 C 287.027344 647.253906 289.136719 660.222656 295.46875 663.539062 C 308.433594 670.476562 320.496094 658.410156 313.863281 645.742188 C 309.039062 636.695312 316.273438 609.25 324.113281 607.742188 C 354.5625 602.3125 366.925781 598.691406 384.714844 589.945312 C 396.171875 584.214844 410.039062 576.375 415.46875 572.152344 L 425.71875 564.609375 L 436.269531 571.851562 C 442.300781 575.769531 448.027344 579.089844 449.535156 579.089844 C 450.742188 579.089844 453.757812 582.707031 455.867188 587.535156 C 460.390625 596.582031 471.246094 599.898438 478.179688 593.867188 C 484.511719 588.738281 482.097656 578.484375 473.65625 574.261719 C 469.738281 572.152344 462.5 564.308594 457.675781 556.769531 L 448.632812 542.894531 L 460.089844 525.703125 C 474.5625 503.6875 485.113281 477.445312 489.335938 453.921875 L 492.347656 435.523438 L 510.441406 432.207031 C 522.5 429.792969 530.640625 429.492188 534.257812 431.601562 C 541.796875 435.824219 551.746094 429.792969 551.746094 421.046875 C 551.746094 411.09375 544.507812 405.964844 534.558594 408.980469 C 529.734375 410.1875 524.910156 410.789062 523.101562 410.488281 C 521.59375 409.886719 514.058594 408.679688 506.820312 407.472656 L 493.253906 405.664062 L 489.636719 386.058594 C 484.8125 360.421875 473.355469 332.070312 459.484375 312.769531 C 450.742188 300.703125 449.234375 296.480469 451.949219 292.863281 C 453.757812 290.148438 458.28125 282.910156 461.898438 276.875 C 465.816406 270.542969 471.246094 265.414062 473.957031 265.414062 C 476.972656 265.414062 479.988281 262.398438 481.195312 257.875 C 485.414062 240.984375 463.40625 234.046875 457.375 250.035156 C 455.566406 254.859375 450.140625 260.890625 445.015625 263.605469 C 439.886719 266.320312 433.558594 269.941406 431.144531 271.75 C 427.527344 274.164062 422.101562 272.050781 406.421875 261.496094 C 385.617188 247.320312 356.675781 236.160156 332.855469 232.84375 C 318.988281 230.730469 318.683594 230.429688 314.765625 215.648438 C 312.65625 207.207031 311.75 195.742188 312.65625 189.410156 C 313.863281 180.664062 313.257812 177.949219 308.132812 175.234375 C 300.898438 171.3125 301.5 171.3125 294.867188 175.234375 Z M 341.902344 239.777344 C 403.707031 252.746094 456.773438 301.003906 478.179688 363.4375 C 485.113281 383.644531 486.320312 392.695312 486.320312 419.234375 C 486.621094 446.683594 485.414062 454.222656 477.574219 476.542969 C 449.234375 557.675781 375.367188 607.441406 291.25 602.3125 C 180.597656 595.675781 99.195312 490.414062 121.804688 383.042969 C 136.277344 313.671875 194.46875 254.558594 262.304688 240.082031 C 287.933594 234.351562 316.273438 234.351562 341.902344 239.777344 Z M 341.902344 239.777344 "/>
<path style=" stroke:none;fill-rule:nonzero;fill:rgb(0%,0%,0%);fill-opacity:1;" d="M 299.992188 263.304688 C 298.785156 271.144531 298.484375 278.6875 299.390625 279.289062 C 300.292969 280.195312 306.023438 280.496094 312.355469 279.894531 L 324.113281 278.6875 L 314.464844 276.273438 C 302.40625 273.257812 301.199219 265.414062 312.957031 265.113281 C 320.496094 264.8125 320.796875 264.8125 314.164062 263.003906 C 304.214844 259.988281 304.816406 255.160156 315.367188 253.050781 C 324.113281 251.542969 324.113281 251.542969 312.957031 250.035156 L 301.800781 248.527344 Z M 299.992188 263.304688 "/>
<path style=" stroke:none;fill-rule:nonzero;fill:rgb(0%,0%,0%);fill-opacity:1;" d="M 271.351562 255.460938 C 271.351562 258.480469 272.253906 265.71875 273.160156 271.449219 C 274.96875 281.703125 275.570312 282.304688 285.21875 281.097656 C 290.949219 280.496094 295.46875 278.6875 295.46875 277.179688 C 295.46875 275.671875 292.152344 275.066406 288.234375 276.273438 C 280.695312 278.082031 277.378906 272.351562 277.378906 256.96875 C 277.378906 253.351562 276.175781 250.335938 274.363281 250.335938 C 272.859375 250.335938 271.351562 252.746094 271.351562 255.460938 Z M 271.351562 255.460938 "/>
<path style=" stroke:none;fill-rule:nonzero;fill:rgb(0%,0%,0%);fill-opacity:1;" d="M 243.308594 258.480469 C 237.582031 259.988281 237.582031 264.8125 244.214844 282.003906 C 247.53125 290.449219 249.339844 291.050781 260.496094 286.527344 C 268.335938 283.511719 271.351562 273.558594 265.320312 269.941406 C 263.8125 269.035156 262.304688 265.414062 262.304688 262.097656 C 262.304688 256.367188 256.273438 255.160156 243.308594 258.480469 Z M 254.765625 267.226562 C 249.339844 271.144531 244.214844 270.242188 244.214844 265.414062 C 244.214844 262.398438 253.5625 259.683594 257.480469 261.796875 C 258.988281 262.699219 257.78125 265.113281 254.765625 267.226562 Z M 261.097656 280.195312 C 258.085938 285.019531 250.246094 284.117188 250.246094 279.289062 C 250.246094 274.164062 256.578125 271.144531 260.496094 274.464844 C 261.703125 275.972656 262.003906 278.382812 261.097656 280.195312 Z M 261.097656 280.195312 "/>
<path style=" stroke:none;fill-rule:nonzero;fill:rgb(0%,0%,0%);fill-opacity:1;" d="M 346.421875 264.511719 C 344.914062 269.035156 343.710938 275.972656 344.3125 280.195312 C 344.914062 286.527344 347.027344 288.335938 354.5625 288.941406 C 363.007812 289.847656 364.210938 288.640625 368.734375 277.179688 C 371.449219 269.941406 373.257812 263.90625 372.652344 263.003906 C 369.640625 260.289062 365.117188 266.019531 363.308594 274.464844 C 360.894531 285.320312 356.976562 288.335938 351.246094 283.511719 C 347.328125 280.496094 347.628906 278.382812 351.246094 269.335938 C 356.675781 256.667969 356.675781 256.367188 352.753906 256.367188 C 350.945312 256.367188 348.234375 259.988281 346.421875 264.511719 Z M 346.421875 264.511719 "/>
<path style=" stroke:none;fill-rule:nonzero;fill:rgb(0%,0%,0%);fill-opacity:1;" d="M 225.21875 267.226562 C 223.109375 269.636719 235.472656 295.578125 238.789062 295.578125 C 242.707031 295.578125 241.5 290.148438 235.171875 277.480469 C 228.839844 264.8125 228.234375 264.210938 225.21875 267.226562 Z M 225.21875 267.226562 "/>
<path style=" stroke:none;fill-rule:nonzero;fill:rgb(0%,0%,0%);fill-opacity:1;" d="M 375.96875 281.402344 C 366.925781 296.480469 368.132812 300.402344 378.082031 288.035156 L 385.316406 278.988281 L 383.808594 293.164062 C 382.601562 302.511719 383.207031 307.640625 385.316406 307.640625 C 388.632812 307.640625 404.011719 287.132812 404.011719 282.910156 C 404.011719 277.78125 399.1875 280.796875 394.363281 288.640625 L 389.238281 297.085938 L 388.933594 284.417969 C 388.933594 267.226562 385.015625 266.019531 375.96875 281.402344 Z M 375.96875 281.402344 "/>
<path style=" stroke:none;fill-rule:nonzero;fill:rgb(0%,0%,0%);fill-opacity:1;" d="M 204.417969 279.289062 C 199.59375 281.703125 195.976562 284.417969 195.976562 285.320312 C 195.976562 287.433594 211.652344 310.65625 213.160156 310.65625 C 213.761719 310.65625 217.683594 308.546875 221.601562 305.832031 C 229.742188 300.402344 231.550781 290.449219 224.917969 287.734375 C 222.507812 286.828125 220.09375 283.511719 219.191406 280.195312 C 217.382812 273.257812 215.269531 273.257812 204.417969 279.289062 Z M 215.269531 283.210938 C 217.683594 286.828125 208.941406 293.464844 205.019531 291.050781 C 202.609375 289.542969 202.609375 287.734375 205.320312 284.71875 C 209.242188 279.894531 212.859375 279.289062 215.269531 283.210938 Z M 223.109375 293.765625 C 223.109375 295.878906 221.300781 299.496094 218.890625 301.308594 C 213.160156 306.132812 209.242188 299.800781 214.066406 294.070312 C 218.890625 288.335938 223.109375 288.335938 223.109375 293.765625 Z M 223.109375 293.765625 "/>
<path style=" stroke:none;fill-rule:nonzero;fill:rgb(0%,0%,0%);fill-opacity:1;" d="M 269.238281 294.070312 C 246.023438 300.402344 230.042969 309.449219 212.558594 326.039062 C 145.625 389.074219 164.617188 497.652344 249.640625 537.769531 C 268.035156 546.515625 272.253906 547.417969 299.992188 547.417969 C 321.398438 547.417969 334.664062 545.910156 345.820312 541.992188 C 369.640625 533.546875 396.171875 512.433594 410.339844 491.019531 C 427.226562 464.777344 432.050781 445.777344 430.542969 411.695312 C 429.636719 387.867188 428.128906 381.234375 419.386719 363.738281 C 391.648438 307.339844 328.636719 278.082031 269.238281 294.070312 Z M 324.113281 295.878906 C 363.910156 303.117188 397.980469 329.355469 416.371094 366.453125 C 426.019531 386.359375 426.621094 389.074219 426.621094 419.234375 C 426.621094 448.492188 426.019531 452.414062 416.972656 471.414062 C 392.25 523.289062 337.378906 552.847656 282.808594 543.5 C 229.441406 534.148438 188.4375 493.429688 177.582031 439.140625 C 167.632812 389.980469 198.085938 330.863281 245.421875 307.640625 C 274.0625 293.464844 294.867188 290.449219 324.113281 295.878906 Z M 324.113281 295.878906 "/>
<path style=" stroke:none;fill-rule:nonzero;fill:rgb(0%,0%,0%);fill-opacity:1;" d="M 320.496094 314.277344 C 321.097656 316.386719 319.890625 320.609375 317.179688 323.625 C 312.050781 329.355469 314.765625 334.785156 320.191406 329.355469 C 325.320312 324.230469 329.539062 324.832031 327.429688 330.261719 C 325.320312 336.292969 333.761719 339.914062 338.585938 335.085938 C 340.996094 332.675781 340.394531 331.769531 336.171875 331.769531 C 330.746094 331.46875 330.746094 331.167969 337.378906 325.4375 C 345.820312 318.5 344.011719 314.578125 334.964844 319.707031 C 329.539062 322.417969 328.636719 322.117188 328.636719 316.6875 C 328.636719 313.070312 326.523438 310.65625 323.8125 310.65625 C 321.097656 310.65625 319.589844 312.464844 320.496094 314.277344 Z M 320.496094 314.277344 "/>
<path style=" stroke:none;fill-rule:nonzero;fill:rgb(0%,0%,0%);fill-opacity:1;" d="M 266.828125 316.6875 C 265.921875 318.195312 266.527344 319.707031 268.335938 319.707031 C 270.746094 319.707031 271.046875 323.023438 269.84375 329.355469 C 268.035156 339.007812 268.335938 339.007812 272.859375 333.277344 C 276.777344 328.453125 277.984375 328.148438 280.09375 331.46875 C 283.109375 335.992188 292.453125 333.878906 292.453125 329.054688 C 292.453125 327.246094 290.042969 326.945312 287.328125 327.847656 C 282.203125 329.960938 282.203125 329.65625 287.328125 321.816406 C 293.058594 313.070312 289.742188 310.355469 283.109375 318.5 C 279.792969 322.722656 279.1875 322.722656 276.777344 318.5 C 273.761719 313.070312 269.539062 312.164062 266.828125 316.6875 Z M 266.828125 316.6875 "/>
<path style=" stroke:none;fill-rule:nonzero;fill:rgb(0%,0%,0%);fill-opacity:1;" d="M 230.949219 333.578125 C 219.191406 345.34375 231.550781 360.722656 244.515625 350.46875 C 249.640625 346.246094 250.546875 342.929688 249.039062 336.898438 C 246.929688 327.546875 238.183594 326.039062 230.949219 333.578125 Z M 243.308594 339.609375 C 245.722656 345.945312 239.390625 352.277344 234.867188 347.753906 C 230.949219 343.832031 233.359375 334.785156 238.183594 334.785156 C 239.992188 334.785156 242.105469 336.898438 243.308594 339.609375 Z M 243.308594 339.609375 "/>
<path style=" stroke:none;fill-rule:nonzero;fill:rgb(0%,0%,0%);fill-opacity:1;" d="M 356.675781 339.609375 C 353.960938 346.851562 359.691406 354.089844 368.433594 355.292969 C 378.683594 356.5 384.414062 349.261719 379.890625 341.121094 C 375.96875 333.277344 359.386719 332.371094 356.675781 339.609375 Z M 376.875 344.136719 C 376.875 348.660156 366.324219 352.582031 361.5 349.5625 C 357.878906 347.152344 358.183594 345.945312 362.703125 342.324219 C 368.433594 338.101562 376.875 339.308594 376.875 344.136719 Z M 376.875 344.136719 "/>
<path style=" stroke:none;fill-rule:nonzero;fill:rgb(0%,0%,0%);fill-opacity:1;" d="M 283.410156 369.46875 L 283.410156 386.058594 L 235.171875 386.058594 L 235.171875 419.234375 L 283.410156 419.234375 L 283.410156 527.816406 L 316.574219 527.816406 L 316.574219 419.234375 L 364.816406 419.234375 L 364.816406 386.058594 L 316.574219 386.058594 L 316.574219 352.882812 L 283.410156 352.882812 Z M 283.410156 369.46875 "/>
<path style=" stroke:none;fill-rule:nonzero;fill:rgb(0%,0%,0%);fill-opacity:1;" d="M 209.242188 366.453125 C 210.75 372.488281 210.144531 373.996094 205.019531 373.996094 C 201.703125 373.996094 198.988281 376.105469 198.988281 378.519531 C 198.988281 380.929688 200.800781 382.136719 203.210938 381.234375 C 205.925781 380.328125 208.335938 382.136719 209.542969 385.757812 C 212.257812 394.503906 218.285156 393.902344 215.875 384.851562 C 214.667969 379.421875 215.269531 377.914062 219.191406 378.21875 C 222.207031 378.21875 224.917969 376.105469 225.523438 373.089844 C 226.125 370.375 225.21875 367.960938 223.410156 367.960938 C 221.601562 367.960938 220.09375 369.46875 220.09375 371.28125 C 220.09375 372.789062 218.890625 373.390625 217.078125 372.488281 C 215.574219 371.582031 214.066406 367.960938 214.066406 364.644531 C 214.066406 361.628906 212.558594 358.914062 210.75 358.914062 C 208.636719 358.914062 208.035156 361.929688 209.242188 366.453125 Z M 209.242188 366.453125 "/>
<path style=" stroke:none;fill-rule:nonzero;fill:rgb(0%,0%,0%);fill-opacity:1;" d="M 388.03125 367.058594 C 386.824219 367.960938 385.921875 371.582031 385.921875 374.597656 C 385.921875 377.914062 384.714844 379.421875 382.601562 378.21875 C 380.792969 377.3125 381.097656 379.421875 383.507812 383.34375 L 387.425781 390.582031 L 388.332031 380.628906 C 389.539062 368.566406 393.15625 368.265625 400.089844 380.027344 C 402.804688 384.851562 406.421875 389.074219 407.628906 389.074219 C 412.152344 389.074219 410.039062 380.929688 403.707031 372.789062 C 397.679688 365.246094 391.949219 362.835938 388.03125 367.058594 Z M 388.03125 367.058594 "/>
<path style=" stroke:none;fill-rule:nonzero;fill:rgb(0%,0%,0%);fill-opacity:1;" d="M 205.925781 431.300781 C 204.71875 435.523438 201.703125 437.332031 195.671875 437.332031 C 183.613281 437.332031 184.519531 442.761719 196.878906 443.96875 C 207.734375 444.871094 208.941406 450.601562 198.085938 450.90625 C 189.34375 450.90625 190.546875 458.445312 202.304688 477.445312 C 207.128906 485.589844 211.050781 494.035156 211.050781 496.449219 C 211.050781 498.859375 212.558594 500.671875 214.667969 500.671875 C 216.777344 500.671875 221.902344 504.289062 226.726562 508.8125 C 235.773438 517.257812 242.105469 516.355469 234.566406 507.605469 C 231.851562 504.589844 230.347656 500.671875 231.25 498.859375 C 231.851562 497.050781 229.742188 494.636719 226.125 493.734375 C 218.285156 491.621094 218.285156 485.589844 226.125 485.589844 C 231.550781 485.589844 232.15625 483.480469 232.15625 467.492188 L 232.15625 449.398438 L 222.808594 449.398438 C 217.683594 449.398438 214.367188 448.191406 215.574219 446.378906 C 216.476562 444.570312 220.699219 443.363281 224.917969 443.363281 C 228.839844 443.363281 232.15625 441.855469 232.15625 440.347656 C 232.15625 438.539062 228.535156 437.332031 224.316406 437.332031 C 219.191406 437.332031 215.875 435.523438 214.96875 431.300781 C 214.066406 427.984375 211.953125 425.269531 210.445312 425.269531 C 208.941406 425.269531 206.828125 427.984375 205.925781 431.300781 Z M 222.207031 460.554688 C 223.109375 463.269531 220.09375 464.476562 212.859375 464.476562 C 205.925781 464.476562 202.003906 462.96875 202.003906 460.554688 C 202.003906 455.429688 220.699219 455.730469 222.207031 460.554688 Z M 223.109375 475.035156 C 223.109375 477.445312 220.699219 479.558594 217.382812 479.558594 C 214.367188 479.558594 210.144531 477.445312 208.035156 475.035156 C 204.71875 471.113281 205.621094 470.507812 213.761719 470.507812 C 220.09375 470.507812 223.109375 472.015625 223.109375 475.035156 Z M 223.109375 475.035156 "/>
<path style=" stroke:none;fill-rule:nonzero;fill:rgb(0%,0%,0%);fill-opacity:1;" d="M 252.355469 431.300781 C 251.449219 434.917969 248.132812 437.332031 244.515625 437.332031 C 236.375 437.332031 236.375 442.761719 244.214844 443.96875 C 247.832031 444.570312 250.546875 446.078125 250.546875 447.890625 C 250.546875 449.398438 247.832031 451.207031 244.214844 451.808594 C 237.582031 453.015625 235.773438 458.144531 242.105469 458.746094 C 243.914062 459.046875 252.054688 459.652344 260.195312 459.652344 L 274.363281 460.253906 L 274.363281 448.792969 C 274.363281 439.140625 273.460938 437.332031 268.035156 437.332031 C 264.414062 437.332031 261.097656 434.917969 260.195312 431.300781 C 259.289062 427.984375 257.480469 425.269531 256.273438 425.269531 C 255.070312 425.269531 253.261719 427.984375 252.355469 431.300781 Z M 265.320312 447.890625 C 265.320312 450.300781 264.113281 452.414062 262.304688 452.414062 C 260.796875 452.414062 259.289062 450.300781 259.289062 447.890625 C 259.289062 445.476562 260.796875 443.363281 262.304688 443.363281 C 264.113281 443.363281 265.320312 445.476562 265.320312 447.890625 Z M 265.320312 447.890625 "/>
<path style=" stroke:none;fill-rule:nonzero;fill:rgb(0%,0%,0%);fill-opacity:1;" d="M 327.128906 456.332031 L 327.128906 482.574219 L 340.996094 480.765625 C 350.042969 479.558594 355.769531 480.160156 356.976562 482.273438 C 362.101562 490.414062 364.816406 483.78125 364.816406 463.269531 C 364.816406 450.90625 366.324219 439.746094 367.828125 438.839844 C 375.367188 434.316406 369.335938 431.601562 349.136719 430.695312 L 327.128906 429.792969 Z M 357.277344 441.855469 C 357.277344 443.363281 352.753906 445.175781 347.628906 445.777344 C 340.09375 446.683594 337.679688 445.476562 337.679688 441.855469 C 337.679688 438.238281 340.09375 437.03125 347.628906 437.9375 C 352.753906 438.539062 357.277344 440.046875 357.277344 441.855469 Z M 357.277344 455.429688 C 358.484375 457.238281 354.867188 458.445312 348.535156 458.445312 C 342.503906 458.445312 337.679688 456.9375 337.679688 455.429688 C 337.679688 453.621094 341.597656 452.414062 346.421875 452.414062 C 351.550781 452.414062 356.371094 453.621094 357.277344 455.429688 Z M 357.277344 469 C 357.277344 470.507812 352.753906 472.320312 347.628906 472.921875 C 340.09375 473.828125 337.679688 472.621094 337.679688 469 C 337.679688 465.382812 340.09375 464.175781 347.628906 465.082031 C 352.753906 465.683594 357.277344 467.191406 357.277344 469 Z M 357.277344 469 "/>
<path style=" stroke:none;fill-rule:nonzero;fill:rgb(0%,0%,0%);fill-opacity:1;" d="M 376.875 455.429688 L 376.875 479.558594 L 390.140625 479.558594 C 402.804688 479.558594 403.707031 478.953125 408.230469 467.492188 C 410.945312 460.859375 413.960938 450 414.863281 443.363281 L 416.972656 431.300781 L 376.875 431.300781 Z M 405.214844 439.746094 C 407.628906 443.667969 401.296875 463.574219 396.171875 469 C 388.03125 476.84375 385.921875 474.128906 385.921875 455.429688 C 385.921875 437.332031 385.921875 437.332031 394.664062 437.332031 C 399.789062 437.332031 404.3125 438.539062 405.214844 439.746094 Z M 405.214844 439.746094 "/>
<path style=" stroke:none;fill-rule:nonzero;fill:rgb(0%,0%,0%);fill-opacity:1;" d="M 238.183594 476.542969 L 238.183594 488.605469 L 274.363281 488.605469 L 274.363281 464.476562 L 238.183594 464.476562 Z M 265.320312 476.542969 C 265.320312 478.050781 261.402344 479.558594 256.273438 479.558594 C 251.449219 479.558594 247.230469 478.050781 247.230469 476.542969 C 247.230469 474.730469 251.449219 473.527344 256.273438 473.527344 C 261.402344 473.527344 265.320312 474.730469 265.320312 476.542969 Z M 265.320312 476.542969 "/>
<path style=" stroke:none;fill-rule:nonzero;fill:rgb(0%,0%,0%);fill-opacity:1;" d="M 325.621094 493.128906 C 325.621094 496.75 329.238281 497.652344 342.503906 497.652344 C 352.753906 497.652344 358.484375 498.859375 357.277344 500.671875 C 356.371094 502.179688 348.835938 503.6875 340.394531 503.6875 C 329.238281 503.6875 325.621094 504.894531 325.621094 508.210938 C 325.621094 510.925781 328.636719 512.734375 333.460938 512.734375 C 337.679688 512.734375 340.394531 513.941406 339.1875 515.75 C 338.28125 517.257812 334.664062 518.765625 331.347656 518.765625 C 328.332031 518.765625 325.621094 520.878906 325.621094 523.289062 C 325.621094 529.324219 349.4375 529.324219 357.578125 523.289062 C 363.007812 519.070312 363.007812 519.070312 356.070312 518.765625 C 344.3125 518.765625 352.753906 513.335938 366.324219 512.132812 C 378.683594 511.226562 381.699219 505.796875 370.84375 504.289062 C 360.292969 502.480469 367.527344 497.652344 380.191406 497.652344 C 388.632812 497.652344 391.949219 496.449219 391.347656 493.734375 C 390.441406 491.320312 380.191406 489.8125 357.878906 489.210938 C 330.445312 488.605469 325.621094 489.210938 325.621094 493.128906 Z M 325.621094 493.128906 "/>
<path style=" stroke:none;fill-rule:nonzero;fill:rgb(0%,0%,0%);fill-opacity:1;" d="M 241.199219 506.703125 C 241.199219 517.558594 242.105469 518.765625 248.738281 518.765625 C 253.5625 518.765625 256.273438 520.578125 256.273438 523.289062 C 256.273438 525.703125 258.386719 527.816406 260.796875 527.816406 C 263.210938 527.816406 265.320312 525.703125 265.320312 523.289062 C 265.320312 520.878906 267.429688 518.765625 269.84375 518.765625 C 272.253906 518.765625 274.363281 516.65625 274.363281 514.242188 C 274.363281 511.828125 272.253906 509.71875 269.84375 509.71875 C 267.429688 509.71875 265.320312 508.210938 265.320312 506.703125 C 265.320312 504.894531 267.429688 503.6875 269.84375 503.6875 C 272.253906 503.6875 274.363281 501.574219 274.363281 499.164062 C 274.363281 495.542969 270.445312 494.636719 257.78125 494.636719 L 241.199219 494.636719 Z M 256.273438 506.703125 C 256.273438 508.210938 255.070312 509.71875 253.261719 509.71875 C 251.753906 509.71875 250.246094 508.210938 250.246094 506.703125 C 250.246094 504.894531 251.753906 503.6875 253.261719 503.6875 C 255.070312 503.6875 256.273438 504.894531 256.273438 506.703125 Z M 256.273438 506.703125 "/>
<path style=" stroke:none;fill-rule:nonzero;fill:rgb(0%,0%,0%);fill-opacity:1;" d="M 404.3125 299.800781 C 398.882812 305.53125 394.664062 311.5625 395.566406 313.671875 C 396.171875 315.484375 400.996094 312.164062 406.722656 306.433594 C 412.152344 300.703125 416.371094 294.671875 415.46875 292.558594 C 414.863281 290.75 410.039062 294.070312 404.3125 299.800781 Z M 404.3125 299.800781 "/>
<path style=" stroke:none;fill-rule:nonzero;fill:rgb(0%,0%,0%);fill-opacity:1;" d="M 415.46875 313.671875 C 410.945312 321.515625 408.230469 328.753906 409.136719 329.65625 C 410.945312 331.769531 434.160156 323.023438 438.683594 318.800781 C 441.699219 315.785156 431.445312 317.59375 420.289062 321.816406 C 415.769531 323.625 416.070312 322.417969 421.796875 313.972656 C 425.71875 308.546875 427.828125 303.117188 426.320312 301.609375 C 424.8125 300.101562 419.988281 305.226562 415.46875 313.671875 Z M 415.46875 313.671875 "/>
<path style=" stroke:none;fill-rule:nonzero;fill:rgb(0%,0%,0%);fill-opacity:1;" d="M 174.871094 307.640625 C 174.871094 309.148438 177.582031 312.164062 180.898438 314.277344 C 189.945312 320.007812 188.4375 321.515625 174.871094 320.308594 C 159.796875 318.800781 159.492188 322.722656 173.363281 333.578125 C 186.328125 343.53125 191.152344 341.121094 179.089844 330.5625 L 170.347656 323.324219 L 184.820312 324.832031 C 192.660156 325.738281 198.988281 325.4375 198.988281 323.925781 C 198.988281 321.214844 179.695312 304.625 176.679688 304.625 C 175.472656 304.625 174.871094 305.832031 174.871094 307.640625 Z M 174.871094 307.640625 "/>
<path style=" stroke:none;fill-rule:nonzero;fill:rgb(0%,0%,0%);fill-opacity:1;" d="M 433.558594 335.085938 C 420.59375 341.722656 419.386719 346.246094 428.429688 356.199219 C 433.859375 362.535156 434.460938 362.535156 432.652344 357.40625 C 429.335938 347.753906 429.335938 342.929688 433.253906 341.722656 C 435.066406 341.121094 437.476562 343.230469 438.683594 346.546875 C 439.585938 350.167969 442 352.882812 443.507812 352.882812 C 445.316406 352.882812 445.015625 350.167969 442.902344 346.546875 C 440.792969 342.023438 440.492188 339.308594 442.902344 336.898438 C 445.015625 334.785156 447.125 336.292969 449.535156 341.722656 C 451.648438 346.246094 454.359375 348.960938 455.867188 348.054688 C 458.28125 346.546875 449.535156 328.753906 446.21875 328.753906 C 445.316406 329.054688 439.585938 331.769531 433.558594 335.085938 Z M 433.558594 335.085938 "/>
<path style=" stroke:none;fill-rule:nonzero;fill:rgb(0%,0%,0%);fill-opacity:1;" d="M 148.941406 341.421875 C 147.734375 343.230469 152.859375 350.167969 159.796875 357.105469 C 167.03125 364.042969 171.855469 367.058594 170.648438 364.042969 C 168.539062 357.707031 173.964844 345.945312 177.886719 348.359375 C 179.390625 349.261719 181.203125 348.660156 182.40625 347.152344 C 183.3125 345.34375 179.089844 343.230469 172.757812 342.324219 C 166.429688 341.421875 158.890625 339.914062 156.175781 339.308594 C 153.160156 338.707031 149.84375 339.609375 148.941406 341.421875 Z M 166.730469 351.675781 C 165.523438 354.992188 164.015625 355.292969 161 352.582031 C 154.972656 347.753906 155.875 344.136719 162.507812 345.945312 C 166.125 346.851562 167.632812 349.261719 166.730469 351.675781 Z M 166.730469 351.675781 "/>
<path style=" stroke:none;fill-rule:nonzero;fill:rgb(0%,0%,0%);fill-opacity:1;" d="M 448.027344 363.136719 C 434.460938 367.359375 429.636719 373.996094 441.699219 371.882812 C 447.726562 370.675781 449.234375 371.582031 449.234375 376.710938 C 449.234375 380.328125 447.425781 383.042969 444.710938 383.042969 C 442.300781 383.042969 440.191406 385.152344 440.191406 387.566406 C 440.191406 391.488281 441.394531 391.789062 447.125 388.472656 C 450.742188 386.359375 455.867188 385.152344 458.882812 385.457031 C 461.597656 386.058594 464.613281 384.851562 465.816406 383.042969 C 468.230469 379.121094 464.914062 358.914062 461.898438 359.214844 C 460.691406 359.515625 454.359375 361.328125 448.027344 363.136719 Z M 462.800781 377.011719 C 460.089844 381.535156 455.265625 380.628906 453.15625 375.199219 C 450.742188 368.867188 458.882812 363.738281 462.199219 369.773438 C 463.40625 372.183594 463.707031 375.503906 462.800781 377.011719 Z M 462.800781 377.011719 "/>
<path style=" stroke:none;fill-rule:nonzero;fill:rgb(0%,0%,0%);fill-opacity:1;" d="M 136.277344 374.597656 C 133.867188 384.25 134.167969 384.550781 145.925781 388.171875 C 163.414062 393.597656 164.921875 393.296875 167.03125 382.441406 C 169.441406 370.375 167.03125 367.660156 162.808594 378.21875 C 158.890625 388.773438 151.957031 386.664062 152.859375 375.199219 L 153.464844 366.453125 L 150.449219 374.597656 C 146.226562 385.757812 140.800781 385.457031 142.308594 373.996094 C 144.117188 361.929688 139.59375 362.535156 136.277344 374.597656 Z M 136.277344 374.597656 "/>
<path style=" stroke:none;fill-rule:nonzero;fill:rgb(0%,0%,0%);fill-opacity:1;" d="M 444.410156 399.328125 C 441.09375 408.078125 444.410156 417.726562 451.34375 418.632812 C 456.773438 419.539062 458.582031 417.726562 460.691406 409.585938 C 463.40625 398.125 469.132812 397.820312 468.230469 408.980469 C 467.929688 412.902344 469.132812 416.21875 470.640625 416.21875 C 472.449219 416.21875 473.355469 411.695312 472.753906 406.265625 C 472.148438 399.027344 470.339844 396.3125 465.214844 395.710938 C 459.789062 394.804688 457.976562 396.617188 455.867188 404.757812 C 454.660156 410.1875 452.25 414.710938 450.742188 414.710938 C 446.21875 414.710938 445.316406 403.550781 449.234375 401.140625 C 451.949219 399.632812 451.949219 398.425781 449.535156 396.917969 C 447.726562 395.710938 445.316406 396.617188 444.410156 399.328125 Z M 444.410156 399.328125 "/>
<path style=" stroke:none;fill-rule:nonzero;fill:rgb(0%,0%,0%);fill-opacity:1;" d="M 131.453125 403.25 C 130.550781 405.664062 129.644531 411.09375 129.644531 415.011719 C 129.644531 421.648438 130.851562 422.253906 144.71875 422.253906 C 153.160156 422.253906 159.796875 420.742188 159.796875 419.234375 C 159.796875 417.425781 157.082031 416.21875 153.464844 416.21875 C 145.023438 416.21875 147.132812 405.964844 156.175781 404.757812 C 168.539062 402.949219 162.808594 398.726562 148.035156 398.726562 C 137.484375 398.726562 132.660156 400.234375 131.453125 403.25 Z M 144.71875 410.488281 C 144.71875 413.503906 142.609375 416.21875 140.199219 416.21875 C 135.675781 416.21875 133.867188 406.871094 137.484375 403.25 C 140.800781 400.234375 144.71875 404.15625 144.71875 410.488281 Z M 144.71875 410.488281 "/>
<path style=" stroke:none;fill-rule:nonzero;fill:rgb(0%,0%,0%);fill-opacity:1;" d="M 443.203125 428.285156 C 443.203125 429.792969 450.140625 431.300781 458.582031 431.300781 C 467.929688 431.300781 473.054688 430.09375 471.847656 428.285156 C 470.941406 426.472656 464.007812 425.269531 456.472656 425.269531 C 449.234375 425.269531 443.203125 426.472656 443.203125 428.285156 Z M 443.203125 428.285156 "/>
<path style=" stroke:none;fill-rule:nonzero;fill:rgb(0%,0%,0%);fill-opacity:1;" d="M 137.484375 435.222656 C 130.851562 440.046875 132.058594 454.824219 138.992188 459.351562 C 145.625 463.574219 158.890625 459.652344 162.808594 452.109375 C 170.347656 438.238281 151.050781 425.269531 137.484375 435.222656 Z M 158.589844 441.855469 C 161 448.191406 154.367188 455.429688 146.226562 455.429688 C 138.085938 455.429688 134.167969 447.285156 138.992188 441.554688 C 143.515625 435.824219 156.476562 436.125 158.589844 441.855469 Z M 158.589844 441.855469 "/>
<path style=" stroke:none;fill-rule:nonzero;fill:rgb(0%,0%,0%);fill-opacity:1;" d="M 467.324219 443.667969 C 467.324219 446.078125 463.105469 446.683594 453.757812 445.476562 C 436.875 443.0625 435.667969 448.191406 452.25 450.90625 C 461.296875 452.414062 464.308594 454.222656 464.308594 458.746094 C 464.308594 461.761719 465.816406 464.476562 467.324219 464.476562 C 469.132812 464.476562 470.339844 462.0625 470.339844 459.046875 C 470.339844 456.332031 471.246094 450.90625 472.148438 446.984375 C 473.355469 443.0625 472.753906 440.347656 470.640625 440.347656 C 468.832031 440.347656 467.324219 441.855469 467.324219 443.667969 Z M 467.324219 443.667969 "/>
<path style=" stroke:none;fill-rule:nonzero;fill:rgb(0%,0%,0%);fill-opacity:1;" d="M 159.191406 469 C 155.574219 477.445312 153.160156 478.050781 144.417969 473.527344 C 140.5 471.113281 138.691406 471.414062 138.691406 473.527344 C 138.691406 475.335938 142.308594 478.351562 146.527344 480.160156 C 153.765625 483.480469 153.765625 484.082031 148.941406 487.699219 C 140.199219 494.035156 145.925781 494.941406 160.699219 489.511719 C 174.570312 484.382812 179.695312 478.652344 169.746094 479.859375 C 160.097656 480.765625 159.492188 479.558594 164.015625 472.921875 C 169.441406 465.082031 170.046875 461.460938 165.824219 461.460938 C 164.015625 461.460938 161 464.777344 159.191406 469 Z M 159.191406 469 "/>
<path style=" stroke:none;fill-rule:nonzero;fill:rgb(0%,0%,0%);fill-opacity:1;" d="M 434.460938 473.527344 C 434.460938 474.429688 439.886719 479.558594 446.523438 485.289062 C 454.964844 492.226562 458.28125 494.035156 458.28125 490.71875 C 458.28125 488.003906 457.074219 484.988281 455.265625 484.082031 C 450.140625 481.066406 451.949219 476.542969 457.976562 476.542969 C 461.296875 476.542969 464.613281 475.335938 465.515625 474.128906 C 466.117188 472.921875 459.484375 471.714844 450.441406 471.714844 C 441.394531 472.015625 434.160156 472.621094 434.460938 473.527344 Z M 434.460938 473.527344 "/>
<path style=" stroke:none;fill-rule:nonzero;fill:rgb(0%,0%,0%);fill-opacity:1;" d="M 410.945312 523.59375 C 410.039062 526.003906 410.644531 529.625 412.453125 531.433594 C 416.972656 535.957031 425.417969 529.019531 423.003906 522.988281 C 420.894531 517.257812 413.355469 517.558594 410.945312 523.59375 Z M 410.945312 523.59375 "/>
<path style=" stroke:none;fill-rule:nonzero;fill:rgb(0%,0%,0%);fill-opacity:1;" d="M 179.390625 524.800781 C 178.1875 526.910156 178.488281 529.625 180.296875 531.433594 C 184.519531 535.65625 193.863281 532.039062 192.355469 526.910156 C 190.546875 522.085938 182.105469 520.578125 179.390625 524.800781 Z M 179.390625 524.800781 "/>
<path style=" stroke:none;fill-rule:nonzero;fill:rgb(0%,0%,0%);fill-opacity:1;" d="M 377.78125 538.972656 C 373.257812 540.785156 372.652344 551.945312 376.875 551.945312 C 378.683594 551.945312 379.589844 550.132812 379.285156 548.023438 C 378.683594 546.214844 380.492188 544.402344 382.90625 544.402344 C 387.425781 544.402344 387.730469 546.816406 384.109375 561.59375 C 381.699219 571.546875 385.617188 572.453125 395.265625 563.707031 C 402.199219 557.976562 402.199219 557.675781 396.171875 559.484375 C 390.441406 560.992188 389.839844 560.085938 390.140625 549.832031 C 390.441406 538.671875 386.523438 535.054688 377.78125 538.972656 Z M 377.78125 538.972656 "/>
<path style=" stroke:none;fill-rule:nonzero;fill:rgb(0%,0%,0%);fill-opacity:1;" d="M 216.777344 545.609375 C 220.09375 547.722656 219.792969 549.832031 214.367188 557.371094 C 210.75 562.800781 209.242188 567.324219 210.75 568.53125 C 212.558594 569.4375 215.269531 567.023438 217.382812 563.40625 C 219.492188 559.484375 223.109375 553.453125 225.523438 549.53125 C 229.742188 543.195312 229.441406 542.894531 221.300781 542.894531 C 214.96875 542.894531 213.761719 543.800781 216.777344 545.609375 Z M 216.777344 545.609375 "/>
<path style=" stroke:none;fill-rule:nonzero;fill:rgb(0%,0%,0%);fill-opacity:1;" d="M 261.402344 560.085938 C 256.878906 564.609375 259.289062 576.675781 265.320312 578.183594 C 268.636719 579.089844 271.351562 581.199219 271.351562 582.707031 C 271.351562 584.515625 268.035156 584.820312 263.210938 583.613281 C 256.878906 582.105469 255.671875 582.40625 258.085938 585.121094 C 260.195312 586.929688 264.71875 588.136719 268.636719 587.535156 C 281.902344 585.722656 282.203125 557.976562 268.636719 557.976562 C 265.621094 557.976562 262.304688 558.878906 261.402344 560.085938 Z M 273.761719 569.136719 C 272.554688 575.769531 267.128906 575.167969 265.921875 568.832031 C 265.320312 565.816406 266.828125 564.007812 269.84375 564.007812 C 272.859375 564.007812 274.363281 566.121094 273.761719 569.136719 Z M 273.761719 569.136719 "/>
<path style=" stroke:none;fill-rule:nonzero;fill:rgb(0%,0%,0%);fill-opacity:1;" d="M 323.8125 559.785156 C 322.003906 560.691406 321.097656 564.609375 322.003906 568.53125 C 322.90625 573.960938 325.015625 575.769531 329.839844 575.167969 C 333.761719 574.867188 336.171875 576.375 336.171875 579.089844 C 336.171875 582.105469 333.761719 583.3125 329.238281 583.007812 C 325.320312 582.40625 322.90625 583.3125 324.113281 585.121094 C 327.128906 589.644531 339.789062 588.738281 341.902344 583.613281 C 345.21875 574.5625 339.789062 568.53125 329.539062 569.738281 C 323.207031 570.644531 325.015625 565.214844 332.554688 561.59375 C 338.585938 558.578125 338.585938 558.277344 333.15625 558.277344 C 329.839844 558.578125 325.621094 559.183594 323.8125 559.785156 Z M 323.8125 559.785156 "/>
<path style=" stroke:none;fill-rule:nonzero;fill:rgb(0%,0%,0%);fill-opacity:1;" d="M 680.484375 253.351562 L 682.292969 265.414062 L 669.933594 265.414062 C 662.394531 265.414062 656.667969 263.605469 655.160156 261.191406 C 653.351562 257.875 648.527344 260.589844 635.261719 273.257812 L 617.773438 289.542969 L 648.226562 289.542969 L 646.414062 301.609375 C 641.894531 329.355469 652.144531 352.882812 673.550781 364.042969 C 694.65625 375.199219 735.660156 368.265625 751.339844 350.769531 C 756.464844 345.039062 765.808594 325.4375 765.808594 320.308594 C 765.808594 318.800781 758.273438 312.164062 748.925781 305.832031 L 731.742188 294.070312 L 754.957031 293.164062 C 767.617188 292.558594 777.871094 291.355469 777.871094 290.148438 C 777.871094 288.941406 773.949219 282.003906 769.125 274.765625 L 760.082031 261.496094 L 720.886719 262.699219 L 721.789062 252.144531 L 722.394531 241.285156 L 678.976562 241.285156 Z M 716.96875 297.085938 C 728.425781 306.734375 731.4375 318.800781 725.410156 332.675781 C 717.871094 351.375 698.574219 355.597656 685.914062 342.023438 C 672.648438 327.546875 677.46875 299.496094 694.65625 292.558594 C 704.605469 288.335938 707.320312 288.941406 716.96875 297.085938 Z M 716.96875 297.085938 "/>
<path style=" stroke:none;fill-rule:nonzero;fill:rgb(0%,0%,0%);fill-opacity:1;" d="M 1895.53125 253.351562 L 1897.339844 265.414062 L 1884.976562 265.414062 C 1877.441406 265.414062 1871.710938 263.605469 1870.203125 261.191406 C 1868.394531 257.574219 1863.871094 260.289062 1850.605469 273.257812 L 1833.722656 289.542969 L 1862.96875 289.542969 L 1861.160156 305.226562 C 1857.84375 339.308594 1871.710938 361.628906 1900.957031 368.265625 C 1924.171875 373.390625 1947.085938 367.960938 1963.066406 353.785156 C 1972.714844 345.039062 1980.855469 329.355469 1980.855469 319.402344 C 1980.855469 318.5 1973.015625 312.464844 1963.667969 305.832031 L 1946.484375 294.070312 L 1969.699219 293.164062 C 1982.363281 292.558594 1992.914062 291.355469 1992.914062 290.449219 C 1992.914062 289.542969 1988.695312 282.003906 1983.570312 273.859375 C 1976.332031 262.699219 1973.316406 259.988281 1970.300781 262.398438 C 1967.890625 264.210938 1959.75 265.414062 1951.609375 264.8125 C 1937.136719 263.90625 1937.136719 263.90625 1936.234375 252.445312 L 1935.328125 241.285156 L 1894.023438 241.285156 Z M 1935.929688 300.703125 C 1951.308594 316.992188 1941.058594 347.453125 1919.652344 349.261719 C 1903.671875 350.769531 1893.421875 339.914062 1893.421875 321.816406 C 1893.421875 293.464844 1917.839844 281.402344 1935.929688 300.703125 Z M 1935.929688 300.703125 "/>
<path style=" stroke:none;fill-rule:nonzero;fill:rgb(0%,0%,0%);fill-opacity:1;" d="M 1291.625 271.144531 L 1291.925781 297.085938 L 1273.234375 297.988281 L 1254.238281 298.894531 L 1254.238281 319.707031 L 1290.421875 319.707031 L 1290.421875 373.996094 L 1332.628906 373.996094 L 1332.628906 260.289062 L 1311.828125 252.746094 L 1291.023438 245.507812 Z M 1291.625 271.144531 "/>
<path style=" stroke:none;fill-rule:nonzero;fill:rgb(0%,0%,0%);fill-opacity:1;" d="M 789.929688 330.261719 L 789.929688 413.203125 L 829.125 413.203125 L 829.125 322.722656 L 841.183594 322.722656 C 854.449219 322.722656 854.753906 322.417969 849.628906 303.117188 C 846.308594 291.050781 845.105469 289.542969 837.566406 289.542969 C 830.03125 289.542969 829.125 288.640625 829.125 279.289062 C 829.125 272.050781 831.234375 267.527344 835.15625 264.511719 C 840.582031 260.589844 839.375 259.683594 817.367188 253.953125 C 804.402344 250.335938 792.945312 247.320312 791.738281 247.320312 C 790.835938 247.320312 789.929688 284.71875 789.929688 330.261719 Z M 789.929688 330.261719 "/>
<path style=" stroke:none;fill-rule:nonzero;fill:rgb(0%,0%,0%);fill-opacity:1;" d="M 1183.6875 261.496094 C 1186.101562 280.195312 1180.976562 305.226562 1172.230469 317.292969 C 1164.695312 328.148438 1145.398438 337.5 1130.625 337.800781 L 1120.375 337.800781 L 1132.132812 349.867188 C 1138.464844 356.5 1146.90625 361.929688 1150.222656 361.929688 C 1158.664062 361.929688 1181.578125 347.152344 1191.527344 335.085938 L 1199.667969 325.4375 L 1216.855469 339.308594 C 1226.199219 347.152344 1238.5625 355.597656 1243.988281 358.007812 C 1253.636719 362.835938 1253.9375 362.535156 1266.300781 352.882812 L 1278.964844 342.929688 L 1264.792969 339.308594 C 1235.546875 331.769531 1223.789062 315.484375 1221.679688 280.496094 L 1220.472656 257.273438 L 1204.792969 253.351562 C 1196.351562 251.238281 1187.609375 248.828125 1185.496094 247.921875 C 1182.484375 247.015625 1181.878906 250.035156 1183.6875 261.496094 Z M 1183.6875 261.496094 "/>
<path style=" stroke:none;fill-rule:nonzero;fill:rgb(0%,0%,0%);fill-opacity:1;" d="M 1414.035156 276.574219 C 1414.035156 334.785156 1395.945312 363.738281 1356.75 368.566406 C 1349.816406 369.46875 1350.417969 370.375 1365.191406 380.929688 C 1385.695312 396.011719 1394.136719 394.503906 1417.050781 371.28125 L 1433.632812 354.390625 L 1449.007812 370.074219 C 1458.65625 379.726562 1468.605469 386.664062 1475.84375 388.773438 C 1486.695312 391.789062 1488.203125 391.1875 1502.375 380.929688 L 1517.449219 369.773438 L 1501.167969 364.34375 C 1469.8125 353.484375 1456.246094 331.769531 1453.832031 288.035156 L 1452.324219 260.289062 L 1436.949219 254.859375 C 1428.507812 251.84375 1419.761719 248.828125 1417.953125 247.921875 C 1414.941406 247.015625 1414.035156 253.953125 1414.035156 276.574219 Z M 1414.035156 276.574219 "/>
<path style=" stroke:none;fill-rule:nonzero;fill:rgb(0%,0%,0%);fill-opacity:1;" d="M 1775.835938 275.972656 C 1775.835938 304.625 1775.835938 304.625 1768.296875 304.625 C 1761.0625 304.625 1760.761719 303.71875 1760.761719 287.132812 C 1760.761719 277.480469 1762.265625 268.128906 1764.078125 266.320312 C 1766.488281 263.90625 1761.964844 261.191406 1748.398438 256.667969 C 1737.847656 253.351562 1728.800781 250.335938 1727.898438 250.335938 C 1726.992188 250.335938 1726.390625 275.972656 1726.992188 307.640625 L 1727.898438 364.945312 L 1643.175781 364.945312 L 1643.175781 283.511719 L 1715.535156 283.511719 L 1706.1875 269.035156 L 1696.539062 254.859375 L 1645.886719 255.765625 C 1597.046875 256.667969 1594.933594 256.96875 1597.949219 262.398438 C 1599.757812 265.71875 1600.964844 293.464844 1600.964844 328.453125 L 1600.964844 389.074219 L 1727.59375 389.074219 L 1727.59375 467.492188 L 1760.761719 467.492188 L 1760.761719 331.769531 L 1775.835938 331.769531 L 1775.835938 467.492188 L 1812.015625 467.492188 L 1812.015625 262.097656 L 1795.433594 254.558594 C 1786.085938 250.636719 1777.945312 247.320312 1777.34375 247.320312 C 1776.4375 247.320312 1775.835938 260.289062 1775.835938 275.972656 Z M 1775.835938 275.972656 "/>
<path style=" stroke:none;fill-rule:nonzero;fill:rgb(0%,0%,0%);fill-opacity:1;" d="M 2004.976562 307.640625 L 2004.976562 367.960938 L 2044.171875 367.960938 L 2044.171875 322.722656 L 2056.53125 322.722656 C 2068.289062 322.722656 2068.894531 322.417969 2067.085938 314.878906 C 2065.878906 310.355469 2064.070312 303.117188 2063.164062 298.289062 C 2061.957031 291.050781 2059.847656 289.542969 2052.914062 289.542969 C 2045.074219 289.542969 2044.171875 288.640625 2044.171875 279.289062 C 2044.171875 272.050781 2046.28125 267.527344 2050.199219 264.511719 C 2055.628906 260.589844 2054.421875 259.683594 2032.410156 253.953125 C 2019.445312 250.335938 2007.988281 247.320312 2006.785156 247.320312 C 2005.878906 247.320312 2004.976562 274.464844 2004.976562 307.640625 Z M 2004.976562 307.640625 "/>
<path style=" stroke:none;fill-rule:nonzero;fill:rgb(0%,0%,0%);fill-opacity:1;" d="M 1528.605469 278.988281 L 1528.605469 307.640625 L 1486.394531 307.640625 L 1486.394531 331.769531 L 1528.605469 331.769531 L 1528.605469 464.476562 L 1567.800781 464.476562 L 1567.800781 365.246094 C 1567.800781 288.640625 1566.894531 265.71875 1564.183594 264.511719 C 1562.070312 263.605469 1553.027344 260.289062 1544.585938 256.667969 L 1528.605469 250.335938 Z M 1528.605469 278.988281 "/>
<path style=" stroke:none;fill-rule:nonzero;fill:rgb(0%,0%,0%);fill-opacity:1;" d="M 2113.816406 265.414062 L 2101.152344 280.496094 L 2249.191406 280.496094 L 2249.191406 367.960938 L 2291.398438 367.960938 L 2291.398438 324.53125 C 2291.398438 300.703125 2292.605469 280.496094 2294.113281 279.894531 C 2295.621094 279.289062 2291.398438 272.957031 2285.070312 265.71875 C 2276.023438 255.460938 2272.40625 253.050781 2269.691406 255.765625 C 2266.976562 258.480469 2246.175781 259.382812 2198.839844 259.382812 C 2141.855469 259.382812 2131.605469 258.78125 2129.191406 254.859375 C 2127.082031 250.9375 2124.367188 253.050781 2113.816406 265.414062 Z M 2113.816406 265.414062 "/>
<path style=" stroke:none;fill-rule:nonzero;fill:rgb(0%,0%,0%);fill-opacity:1;" d="M 896.960938 267.226562 L 881.886719 280.496094 L 1037.160156 280.496094 L 1037.160156 328.753906 L 961.183594 328.148438 L 884.902344 327.246094 L 875.253906 339.308594 L 865.304688 351.375 L 913.847656 352.277344 L 962.085938 353.183594 L 961.183594 365.851562 L 960.277344 378.519531 L 937.964844 379.421875 C 924.699219 380.027344 914.75 379.121094 913.546875 377.3125 C 912.640625 375.503906 904.5 381.234375 895.453125 390.582031 L 879.175781 407.171875 L 1037.160156 407.171875 L 1037.160156 464.476562 L 1076.355469 464.476562 L 1076.355469 434.316406 C 1076.355469 414.109375 1077.5625 404.15625 1079.671875 404.15625 C 1081.480469 404.15625 1078.164062 398.425781 1071.832031 391.789062 L 1060.675781 379.121094 L 1032.335938 379.726562 L 1003.996094 380.328125 L 1003.996094 352.882812 L 1115.851562 352.882812 L 1105.902344 340.816406 C 1098.0625 331.46875 1093.84375 328.753906 1086.304688 328.753906 L 1076.355469 328.753906 L 1076.355469 304.625 C 1076.355469 287.734375 1077.5625 280.496094 1079.972656 280.496094 C 1082.082031 280.496094 1077.5625 274.464844 1070.324219 266.921875 C 1062.789062 259.382812 1056.457031 254.558594 1055.851562 256.367188 C 1054.34375 260.289062 918.972656 260.589844 915.050781 256.667969 C 913.242188 254.859375 906.308594 258.78125 896.960938 267.226562 Z M 896.960938 267.226562 "/>
<path style=" stroke:none;fill-rule:nonzero;fill:rgb(0%,0%,0%);fill-opacity:1;" d="M 2140.648438 353.484375 L 2140.648438 390.582031 L 2124.972656 389.375 C 2116.226562 389.074219 2107.484375 387.265625 2105.675781 385.757812 C 2103.867188 384.25 2097.535156 388.171875 2089.394531 396.617188 L 2076.128906 410.1875 L 2203.363281 410.1875 C 2345.066406 410.1875 2335.117188 411.996094 2317.328125 390.582031 C 2311.300781 383.34375 2309.1875 382.136719 2306.171875 385.152344 C 2303.460938 387.867188 2291.398438 389.074219 2268.183594 389.074219 L 2234.113281 389.074219 L 2234.113281 316.6875 L 2193.414062 316.6875 L 2194.316406 352.882812 L 2195.222656 389.074219 L 2179.542969 389.074219 L 2180.449219 352.882812 L 2181.351562 316.6875 L 2140.648438 316.6875 Z M 2140.648438 353.484375 "/>
<path style=" stroke:none;fill-rule:nonzero;fill:rgb(0%,0%,0%);fill-opacity:1;" d="M 1236.148438 382.742188 C 1220.171875 387.566406 1208.714844 395.710938 1201.175781 407.171875 C 1181.578125 436.425781 1205.09375 471.414062 1248.8125 478.050781 C 1266.300781 480.765625 1292.53125 473.527344 1305.796875 462.367188 C 1314.238281 455.128906 1323.585938 439.140625 1323.585938 431.601562 C 1323.585938 430.09375 1313.636719 423.15625 1301.878906 416.519531 L 1279.867188 404.15625 L 1296.449219 404.15625 L 1313.03125 403.855469 L 1303.382812 395.105469 C 1288.609375 381.535156 1258.160156 376.105469 1236.148438 382.742188 Z M 1276.851562 411.996094 C 1287.101562 423.15625 1286.800781 435.523438 1275.648438 446.683594 C 1265.695312 456.332031 1258.160156 457.539062 1245.496094 450.90625 C 1235.847656 446.078125 1233.136719 440.953125 1233.136719 427.984375 C 1233.136719 406.265625 1262.078125 396.011719 1276.851562 411.996094 Z M 1276.851562 411.996094 "/>
<path style=" stroke:none;fill-rule:nonzero;fill:rgb(0%,0%,0%);fill-opacity:1;" d="M 1876.234375 397.21875 L 1858.746094 412.902344 L 1935.027344 413.203125 L 2011.003906 413.203125 L 2011.003906 467.492188 L 2046.882812 467.492188 L 2047.789062 433.714844 L 2048.691406 400.234375 L 2037.839844 391.488281 L 2026.984375 382.742188 L 1960.351562 382.136719 L 1893.722656 381.535156 Z M 1876.234375 397.21875 "/>
<path style=" stroke:none;fill-rule:nonzero;fill:rgb(0%,0%,0%);fill-opacity:1;" d="M 659.683594 425.871094 L 660.585938 467.492188 L 845.707031 467.492188 L 829.125 452.414062 C 812.242188 437.332031 808.019531 434.917969 808.019531 440.347656 C 808.019531 442.15625 788.421875 443.363281 755.257812 443.363281 L 702.496094 443.363281 L 702.496094 398.726562 L 680.785156 391.1875 L 658.777344 383.949219 Z M 659.683594 425.871094 "/>
<path style=" stroke:none;fill-rule:nonzero;fill:rgb(0%,0%,0%);fill-opacity:1;" d="M 2052.914062 518.464844 C 2047.789062 523.894531 2044.171875 530.53125 2044.171875 535.355469 C 2044.171875 546.816406 2058.945312 560.390625 2074.019531 562.800781 C 2080.652344 564.007812 2088.792969 566.421875 2091.503906 568.832031 C 2096.632812 572.453125 2096.632812 573.359375 2092.410156 581.199219 C 2089.394531 586.628906 2084.871094 589.945312 2079.144531 590.550781 C 2070.402344 591.757812 2059.246094 584.214844 2059.246094 576.976562 C 2059.246094 574.867188 2055.929688 573.054688 2051.707031 573.054688 C 2047.488281 573.054688 2044.171875 574.5625 2044.171875 576.074219 C 2044.171875 582.40625 2053.214844 597.183594 2058.945312 600.199219 C 2073.113281 607.742188 2104.167969 601.105469 2108.691406 589.644531 C 2115.625 570.945312 2105.074219 554.355469 2083.667969 550.738281 C 2065.578125 548.023438 2059.246094 543.800781 2059.246094 535.355469 C 2059.246094 521.179688 2076.429688 517.558594 2088.1875 529.324219 C 2096.632812 537.769531 2107.484375 539.277344 2107.484375 532.039062 C 2107.484375 529.625 2103.566406 523.289062 2098.742188 518.464844 C 2091.503906 511.226562 2087.285156 509.71875 2075.828125 509.71875 C 2064.371094 509.71875 2060.148438 511.226562 2052.914062 518.464844 Z M 2052.914062 518.464844 "/>
<path style=" stroke:none;fill-rule:nonzero;fill:rgb(0%,0%,0%);fill-opacity:1;" d="M 2124.972656 513.335938 C 2127.382812 515.75 2128.589844 530.226562 2128.589844 558.578125 L 2128.589844 600.199219 L 2143.664062 600.199219 L 2143.664062 509.71875 L 2132.507812 509.71875 C 2123.765625 509.71875 2122.257812 510.625 2124.972656 513.335938 Z M 2124.972656 513.335938 "/>
<path style=" stroke:none;fill-rule:nonzero;fill:rgb(0%,0%,0%);fill-opacity:1;" d="M 657.269531 516.957031 C 659.078125 518.765625 660.285156 538.070312 660.285156 562.199219 L 660.285156 604.726562 L 669.328125 604.726562 C 678.375 604.726562 678.375 604.726562 678.375 587.835938 C 678.375 560.992188 684.101562 559.785156 698.273438 583.3125 C 708.222656 599.597656 711.539062 603.21875 720.285156 604.726562 C 725.710938 605.628906 730.835938 606.234375 731.4375 605.628906 C 732.042969 605.027344 724.503906 592.359375 714.554688 577.582031 L 696.464844 550.4375 L 706.414062 539.878906 C 711.839844 534.148438 719.078125 526.003906 722.695312 521.78125 L 729.328125 513.941406 L 719.378906 514.242188 C 710.9375 514.542969 706.714844 517.558594 694.65625 531.433594 L 679.882812 548.324219 L 678.375 531.433594 L 676.867188 514.242188 L 665.410156 513.941406 C 657.871094 513.941406 655.160156 514.847656 657.269531 516.957031 Z M 657.269531 516.957031 "/>
<path style=" stroke:none;fill-rule:nonzero;fill:rgb(0%,0%,0%);fill-opacity:1;" d="M 759.78125 514.847656 C 744.703125 520.273438 732.644531 539.878906 732.644531 558.578125 C 732.644531 592.660156 764.90625 616.1875 792.34375 602.011719 C 824.902344 585.121094 827.617188 538.671875 796.863281 518.464844 C 788.722656 513.035156 769.730469 511.226562 759.78125 514.847656 Z M 785.40625 532.039062 C 797.46875 537.164062 801.988281 544.707031 801.988281 560.390625 C 801.988281 586.027344 774.554688 597.183594 756.464844 579.390625 C 739.578125 562.5 749.527344 533.546875 774.253906 528.117188 C 774.554688 527.816406 779.679688 529.625 785.40625 532.039062 Z M 785.40625 532.039062 "/>
<path style=" stroke:none;fill-rule:nonzero;fill:rgb(0%,0%,0%);fill-opacity:1;" d="M 919.875 519.070312 C 921.382812 522.085938 922.589844 541.992188 922.589844 563.707031 L 922.589844 603.21875 L 991.933594 603.21875 L 991.933594 595.675781 C 991.933594 588.136719 991.632812 588.136719 964.800781 588.136719 L 937.664062 588.136719 L 937.664062 560.992188 L 963.292969 560.992188 C 988.617188 560.992188 988.921875 560.992188 988.921875 553.453125 C 988.921875 545.910156 988.617188 545.910156 963.292969 545.910156 L 937.664062 545.910156 L 937.664062 527.816406 L 963.59375 527.816406 C 988.617188 527.816406 989.222656 527.511719 988.316406 520.878906 C 987.414062 514.542969 986.507812 514.242188 952.136719 514.242188 C 919.875 513.941406 917.164062 514.542969 919.875 519.070312 Z M 919.875 519.070312 "/>
<path style=" stroke:none;fill-rule:nonzero;fill:rgb(0%,0%,0%);fill-opacity:1;" d="M 1145.097656 544.101562 L 1144.191406 574.5625 L 1123.691406 545.007812 C 1106.203125 520.273438 1101.679688 515.75 1095.046875 515.75 L 1086.90625 515.75 L 1086.003906 559.484375 L 1085.097656 603.21875 L 1103.488281 603.21875 L 1103.488281 541.386719 L 1123.992188 572.152344 C 1141.480469 598.996094 1145.398438 603.21875 1152.632812 603.21875 L 1160.773438 603.21875 L 1160.773438 513.335938 L 1153.238281 513.335938 C 1146 513.335938 1146 513.941406 1145.097656 544.101562 Z M 1145.097656 544.101562 "/>
<path style=" stroke:none;fill-rule:nonzero;fill:rgb(0%,0%,0%);fill-opacity:1;" d="M 1202.382812 514.542969 C 1201.777344 514.847656 1201.777344 535.054688 1202.382812 559.183594 L 1203.285156 603.21875 L 1227.40625 603.21875 C 1252.429688 603.21875 1266.902344 598.691406 1270.519531 589.644531 C 1274.441406 579.390625 1272.328125 564.914062 1266.300781 559.484375 C 1262.378906 555.863281 1261.175781 553.148438 1263.285156 551.945312 C 1269.617188 548.023438 1270.21875 529.625 1264.191406 522.085938 C 1258.761719 515.449219 1255.746094 514.847656 1230.722656 514.242188 C 1215.648438 513.941406 1202.683594 513.941406 1202.382812 514.542969 Z M 1253.636719 537.464844 C 1254.542969 544.101562 1253.035156 546.515625 1247.003906 549.53125 C 1239.164062 552.847656 1239.164062 552.847656 1245.496094 557.371094 C 1253.636719 562.800781 1257.253906 573.054688 1253.636719 579.691406 C 1251.828125 583.914062 1247.304688 585.121094 1236.148438 585.121094 L 1221.074219 585.121094 L 1221.074219 527.511719 L 1237.054688 528.417969 C 1251.527344 529.324219 1252.734375 529.925781 1253.636719 537.464844 Z M 1253.636719 537.464844 "/>
<path style=" stroke:none;fill-rule:nonzero;fill:rgb(0%,0%,0%);fill-opacity:1;" d="M 1397.453125 516.050781 C 1398.660156 517.558594 1399.261719 537.769531 1399.261719 560.992188 L 1399.261719 603.21875 L 1429.410156 603.21875 C 1459.261719 603.21875 1459.261719 603.21875 1459.261719 595.675781 C 1459.261719 588.4375 1458.65625 588.136719 1438.15625 588.136719 L 1417.050781 588.136719 L 1417.050781 551.945312 C 1417.050781 532.039062 1416.144531 515.75 1414.941406 515.449219 C 1413.433594 515.449219 1408.910156 514.847656 1404.085938 514.242188 C 1399.5625 513.640625 1396.546875 514.242188 1397.453125 516.050781 Z M 1397.453125 516.050781 "/>
<path style=" stroke:none;fill-rule:nonzero;fill:rgb(0%,0%,0%);fill-opacity:1;" d="M 1578.050781 517.863281 C 1578.652344 520.878906 1580.160156 537.464844 1581.367188 554.960938 C 1582.574219 573.960938 1584.984375 589.34375 1587.699219 593.265625 C 1596.742188 607.441406 1633.527344 608.042969 1647.394531 594.46875 C 1653.125 588.738281 1653.726562 583.914062 1654.632812 551.945312 L 1655.839844 515.75 L 1635.636719 515.75 L 1636.542969 546.515625 C 1637.746094 583.3125 1635.035156 589.34375 1617.546875 589.34375 C 1600.363281 589.34375 1597.949219 583.613281 1597.949219 545.308594 L 1597.949219 512.734375 L 1587.097656 512.734375 C 1578.351562 512.734375 1576.84375 513.640625 1578.050781 517.863281 Z M 1578.050781 517.863281 "/>
<path style=" stroke:none;fill-rule:nonzero;fill:rgb(0%,0%,0%);fill-opacity:1;" d="M 1757.746094 516.957031 C 1759.554688 518.765625 1760.761719 538.371094 1760.761719 561.59375 L 1760.761719 603.21875 L 1775.835938 603.21875 L 1775.835938 514.242188 L 1765.28125 514.242188 C 1758.347656 513.941406 1755.9375 515.148438 1757.746094 516.957031 Z M 1757.746094 516.957031 "/>
<path style=" stroke:none;fill-rule:nonzero;fill:rgb(0%,0%,0%);fill-opacity:1;" d="M 1786.085938 518.164062 C 1786.992188 520.878906 1794.527344 541.6875 1802.667969 564.007812 C 1816.839844 603.21875 1817.742188 604.726562 1825.882812 604.726562 C 1834.324219 604.726562 1834.929688 603.519531 1846.988281 566.722656 C 1865.078125 511.527344 1864.777344 513.640625 1855.128906 514.242188 C 1847.59375 514.542969 1846.386719 516.957031 1836.738281 545.609375 C 1830.105469 565.816406 1825.582031 575.46875 1824.074219 572.753906 C 1822.566406 570.34375 1817.140625 555.863281 1812.015625 540.484375 C 1802.667969 513.941406 1801.765625 512.734375 1793.320312 512.734375 C 1786.386719 512.734375 1784.878906 513.941406 1786.085938 518.164062 Z M 1786.085938 518.164062 "/>
<path style=" stroke:none;fill-rule:nonzero;fill:rgb(0%,0%,0%);fill-opacity:1;" d="M 1877.742188 557.976562 L 1878.648438 603.21875 L 1947.691406 603.21875 L 1947.691406 595.675781 C 1947.691406 588.136719 1947.386719 588.136719 1920.554688 588.136719 L 1893.421875 588.136719 L 1893.421875 557.976562 L 1919.046875 557.976562 C 1942.566406 557.976562 1944.675781 557.371094 1944.675781 551.945312 C 1944.675781 546.515625 1942.566406 545.910156 1919.046875 545.910156 L 1893.421875 545.910156 L 1893.421875 524.800781 L 1919.046875 524.800781 C 1942.566406 524.800781 1944.675781 524.195312 1944.675781 518.765625 C 1944.675781 513.035156 1942.566406 512.734375 1910.90625 512.734375 L 1876.835938 512.734375 Z M 1877.742188 557.976562 "/>
<path style=" stroke:none;fill-rule:nonzero;fill:rgb(0%,0%,0%);fill-opacity:1;" d="M 1959.148438 516.355469 C 1961.558594 518.765625 1962.765625 533.242188 1962.765625 561.59375 C 1962.765625 601.105469 1963.066406 603.21875 1968.796875 603.21875 C 1974.523438 603.21875 1974.824219 601.105469 1974.824219 564.007812 L 1974.824219 524.800781 L 1993.820312 524.800781 C 2014.019531 524.800781 2017.941406 526.308594 2020.953125 534.753906 C 2023.367188 541.386719 2013.417969 551.945312 2004.671875 551.945312 C 1999.246094 551.945312 1999.847656 553.148438 2009.195312 562.199219 C 2018.84375 571.246094 2020.050781 573.960938 2020.050781 587.835938 C 2020.050781 603.21875 2020.050781 603.21875 2029.699219 603.21875 C 2037.234375 603.21875 2038.441406 602.3125 2035.726562 599.597656 C 2033.617188 597.488281 2032.109375 589.644531 2032.109375 582.105469 C 2032.109375 574.5625 2030.300781 565.515625 2027.890625 562.5 C 2024.269531 557.371094 2024.269531 555.863281 2029.398438 549.230469 C 2037.535156 538.972656 2036.632812 526.609375 2027.285156 519.070312 C 2020.351562 513.640625 2014.925781 512.734375 1987.488281 512.734375 C 1962.464844 512.734375 1956.433594 513.640625 1959.148438 516.355469 Z M 1959.148438 516.355469 "/>
<path style=" stroke:none;fill-rule:nonzero;fill:rgb(0%,0%,0%);fill-opacity:1;" d="M 2155.726562 520.273438 C 2155.726562 527.210938 2156.929688 527.816406 2169.292969 527.816406 L 2182.859375 527.816406 L 2182.859375 600.199219 L 2197.933594 600.199219 L 2197.933594 527.816406 L 2209.996094 527.816406 C 2220.847656 527.816406 2222.054688 526.910156 2222.054688 520.273438 L 2222.054688 512.734375 L 2155.726562 512.734375 Z M 2155.726562 520.273438 "/>
<path style=" stroke:none;fill-rule:nonzero;fill:rgb(0%,0%,0%);fill-opacity:1;" d="M 2255.21875 537.164062 C 2269.089844 559.785156 2270.296875 562.800781 2270.296875 580.898438 C 2270.296875 599.597656 2270.597656 600.199219 2277.832031 600.199219 C 2285.070312 600.199219 2285.371094 599.296875 2285.371094 581.199219 C 2285.671875 564.914062 2287.179688 559.183594 2298.636719 537.464844 L 2311.601562 512.734375 L 2303.160156 512.734375 C 2295.621094 512.734375 2293.210938 515.148438 2285.972656 529.625 L 2277.230469 546.816406 L 2267.582031 529.625 C 2259.140625 515.148438 2256.425781 512.734375 2248.886719 512.734375 L 2240.144531 512.734375 Z M 2255.21875 537.164062 "/>
<path style=" stroke:none;fill-rule:nonzero;fill:rgb(0%,0%,0%);fill-opacity:1;" d="M 831.839844 521.480469 C 833.648438 524.800781 835.15625 544.402344 835.15625 565.214844 C 835.15625 601.105469 835.457031 603.21875 841.183594 603.21875 C 846.914062 603.21875 847.214844 601.105469 847.214844 565.515625 L 847.214844 527.511719 L 867.113281 528.417969 C 882.492188 529.019531 888.21875 530.53125 890.632812 534.449219 C 895.152344 541.992188 890.027344 549.53125 877.363281 553.753906 L 867.414062 557.070312 L 875.554688 559.183594 C 885.203125 561.59375 892.441406 576.074219 892.441406 592.660156 C 892.441406 601.710938 893.34375 603.21875 899.375 603.21875 C 906.007812 603.21875 906.007812 602.3125 904.5 585.421875 C 903.59375 575.769531 901.183594 565.515625 898.773438 563.101562 C 895.453125 558.878906 895.757812 557.371094 899.675781 553.453125 C 907.816406 545.007812 909.023438 534.148438 902.390625 525.402344 C 896.660156 517.558594 895.152344 517.257812 862.589844 516.355469 C 829.726562 515.449219 828.824219 515.75 831.839844 521.480469 Z M 831.839844 521.480469 "/>
<path style=" stroke:none;fill-rule:nonzero;fill:rgb(0%,0%,0%);fill-opacity:1;" d="M 1014.847656 557.070312 C 1007.3125 579.992188 1000.980469 599.898438 1000.980469 601.105469 C 1000.980469 602.613281 1004.597656 603.21875 1009.121094 602.613281 C 1015.453125 602.011719 1017.863281 599.296875 1021.480469 588.738281 C 1025.402344 576.375 1026.003906 576.074219 1038.96875 576.074219 C 1049.21875 576.074219 1052.839844 577.277344 1054.042969 581.199219 C 1060.375 600.804688 1062.183594 603.21875 1070.324219 603.21875 L 1078.464844 603.21875 L 1062.789062 560.085938 C 1047.410156 518.765625 1046.507812 517.257812 1037.761719 516.355469 L 1028.71875 515.449219 Z M 1047.410156 561.292969 C 1046.808594 562.199219 1042.585938 562.5 1037.460938 561.59375 C 1028.113281 560.390625 1028.113281 560.992188 1036.253906 536.863281 C 1037.160156 534.148438 1039.875 537.464844 1043.191406 545.910156 C 1046.203125 553.453125 1048.015625 560.390625 1047.410156 561.292969 Z M 1047.410156 561.292969 "/>
<path style=" stroke:none;fill-rule:nonzero;fill:rgb(0%,0%,0%);fill-opacity:1;" d="M 1289.816406 560.691406 L 1290.722656 605.328125 L 1297.957031 603.820312 L 1305.496094 602.613281 L 1305.496094 515.75 L 1288.914062 515.75 Z M 1289.816406 560.691406 "/>
<path style=" stroke:none;fill-rule:nonzero;fill:rgb(0%,0%,0%);fill-opacity:1;" d="M 1318.761719 520.578125 C 1319.664062 523.289062 1320.570312 542.894531 1320.570312 564.308594 L 1320.570312 603.21875 L 1345.894531 603.21875 C 1368.808594 603.21875 1372.125 602.3125 1380.570312 595.375 C 1392.027344 586.027344 1393.230469 571.546875 1383.582031 561.292969 C 1378.757812 556.167969 1378.15625 553.753906 1380.871094 550.4375 C 1382.980469 548.023438 1384.488281 541.085938 1384.789062 535.054688 C 1385.390625 518.765625 1379.0625 515.75 1345.292969 515.75 C 1320.570312 515.75 1317.253906 516.355469 1318.761719 520.578125 Z M 1367 529.625 C 1369.714844 530.53125 1371.824219 534.753906 1371.824219 538.972656 C 1371.824219 544.101562 1369.414062 547.117188 1362.78125 550.132812 L 1353.433594 553.753906 L 1360.972656 557.371094 C 1368.808594 560.992188 1373.632812 572.753906 1370.617188 580.597656 C 1369.414062 583.914062 1364.589844 585.121094 1353.734375 585.121094 L 1338.660156 585.121094 L 1338.660156 527.816406 L 1350.417969 527.816406 C 1357.050781 527.816406 1364.289062 528.71875 1367 529.625 Z M 1367 529.625 "/>
<path style=" stroke:none;fill-rule:nonzero;fill:rgb(0%,0%,0%);fill-opacity:1;" d="M 1470.71875 559.484375 L 1471.621094 603.21875 L 1540.664062 603.21875 L 1540.664062 595.675781 C 1540.664062 588.136719 1540.363281 588.136719 1513.53125 588.136719 L 1486.394531 588.136719 L 1486.394531 560.992188 L 1512.023438 560.992188 C 1537.046875 560.992188 1537.648438 560.691406 1537.648438 553.753906 C 1537.648438 546.515625 1537.046875 546.515625 1512.023438 546.816406 L 1486.394531 547.417969 L 1486.394531 527.816406 L 1512.023438 527.816406 C 1535.539062 527.816406 1537.648438 527.210938 1537.648438 521.78125 C 1537.648438 516.050781 1535.539062 515.75 1503.882812 515.75 L 1469.8125 515.75 Z M 1470.71875 559.484375 "/>
<path style=" stroke:none;fill-rule:nonzero;fill:rgb(0%,0%,0%);fill-opacity:1;" d="M 1669.707031 560.992188 L 1670.613281 606.234375 L 1678.148438 606.234375 C 1685.386719 606.234375 1685.386719 606.234375 1685.386719 573.960938 L 1685.386719 541.6875 L 1707.394531 573.660156 C 1726.085938 601.40625 1730.308594 605.929688 1737.542969 606.234375 L 1745.683594 606.234375 L 1745.683594 515.75 L 1727.292969 515.75 L 1728.199219 544.402344 C 1728.800781 560.085938 1728.5 573.054688 1727.59375 573.054688 C 1726.691406 573.054688 1717.34375 560.085938 1706.792969 544.402344 C 1689.304688 518.765625 1686.289062 515.75 1678.148438 515.75 L 1668.800781 515.75 Z M 1669.707031 560.992188 "/>
</g>
</svg>
